<?xml version="1.0" standalone="no"?>
<!DOCTYPE svg PUBLIC "-//W3C//DTD SVG 1.0//EN" "http://www.w3.org/TR/2001/REC-SVG-20010904/DTD/svg10.dtd">
<svg xmlns="http://www.w3.org/2000/svg" xmlns:xlink="http://www.w3.org/1999/xlink" id="body_1" width="256" height="50">

<g transform="matrix(0.22755556 0 0 0.22727273 0 0)">
	<g transform="matrix(1.9851074 0 0 1.9851074 -0 0.08000435)">
		<g>
            <path d="M17.48 0.02L17.48 33.11C 17.482712 33.188633 17.453362 33.26499 17.398678 33.32156C 17.343996 33.378128 17.268677 33.41005 17.189999 33.41C 11.589998 33.63 7.699999 35.41 4.6399984 38.71C 0.42 43.25 0 49.27 0 51.47L0 51.47L0 52.31C 0 52.31 0 52.890003 0.07 53.22L0.07 53.22L17.15 53.22C 17.22863 53.21729 17.304989 53.246643 17.361557 53.301323C 17.418125 53.356007 17.450047 53.431328 17.449999 53.510002L17.449999 53.510002L17.449999 106.68L124.14 106.68L124.14 0L17.48 0.02zM185.77 12.51C 182.56334 8.783334 178.05002 6.9200006 172.23001 6.92C 166.41002 6.9200006 161.88002 8.773334 158.64001 12.48C 155.43335 16.18 153.83002 21.243332 153.83002 27.669998C 153.83002 33.949997 155.45001 38.969997 158.71002 42.67C 162.00336 46.550003 166.51004 48.49 172.23003 48.489998zM172.25 40.22C 166.16 40.22 163.09 36.04 163.09 27.650002C 163.09 19.260002 166.16 15.080002 172.25 15.080002C 178.34 15.080002 181.41 19.280003 181.41 27.650002C 181.41 36.02 178.36 40.22 172.25 40.22zM237.36 20.88C 237.36 24.519999 236.29 28.579998 234.16 31.21C 232.20331 33.73803 229.16623 35.191673 225.97 35.129997L225.97 35.129997L215.12 35.129997L215.12 47.979996L206.62999 47.979996L206.62999 7.33L225.93999 7.33C 229.06004 7.249774 232.05408 8.561725 234.10999 10.91C 236.24998 13.29 237.32999 17.24 237.32999 20.91zM228.85 21.099998C 228.85 19.589998 228.36 17.439999 227.37001 16.529999C 226.38326 15.629996 225.08495 15.149404 223.75002 15.189999L223.75002 15.189999L215.12001 15.189999L215.12001 27.189999L223.72002 27.189999C 225.07533 27.228313 226.38593 26.703346 227.34001 25.739998C 228.34001 24.739998 228.82 22.589998 228.82 21.069998zM334.61 77.11C 334.67294 80.19301 333.73624 83.21356 331.93997 85.72C 330.31372 87.82851 327.78214 89.03861 325.11996 88.98L325.11996 88.98L316.11996 88.98L316.11996 99.68L309.01996 99.68L309.01996 65.81L325.11996 65.81C 327.72302 65.74822 330.21863 66.84761 331.92996 68.81C 333.71997 70.81 334.61996 74.09 334.61996 77.119995zM327.52 77.29C 327.56934 75.91814 327.13385 74.57274 326.28998 73.49C 325.4731 72.74162 324.3974 72.34002 323.28998 72.369995L323.28998 72.369995L316.11996 72.369995L316.11996 82.369995L323.29996 82.369995C 324.425 82.39224 325.50974 81.95111 326.29996 81.149994C 327.13922 80.03032 327.57294 78.65862 327.52997 77.259995zM278.75 47.97L253.70999 47.98L253.70999 7.33L278.75 7.3199997L278.75 14.559999L261.96 14.559999L261.96 23.89L273.59 23.89L273.59 31.119999L261.96 31.119999L261.96 40.739998L278.75 40.739998zM566.72 47.97L541.67 47.98L541.67 7.33L566.72 7.3199997L566.72 14.559999L549.92 14.559999L549.92 23.89L561.56 23.89L561.56 31.119999L549.92 31.119999L549.92 40.739998L566.72 40.739998zM328.25 47.97L319.75 47.97L303.85 20.050001L303.85 47.97L295.4 47.97L295.4 7.32L306.13 7.32L319.80002 30.49L319.80002 7.32L328.25003 7.32zM381.22 7.26L381.22 22.71L367.39 22.71L367.39 7.26L358.16 7.26L358.16 47.82L367.39 47.82L367.39 31.41L381.22 31.41L381.22 47.82L390.53 47.82L390.53 7.26zM473.97 7.26L473.97 30.45C 473.97 36.22 472.13 38.690002 467.77 38.690002C 463.40997 38.690002 461.62 36.22 461.62 30.440002L461.62 30.440002L461.62 7.26L451.78 7.26L451.78 31.68C 451.78 36.940002 453.23 41.02 456.1 43.8C 458.97 46.579998 462.88 48.01 467.77002 48.01C 472.66003 48.01 476.66003 46.62 479.44003 43.879997C 482.39005 41.039997 483.89005 36.879997 483.89005 31.609997L483.89005 31.609997L483.89005 7.31zM434.35 12.49C 431.13 8.7699995 426.95 6.8799996 421.18 6.8799996C 415.40997 6.8799996 411.18 8.759999 407.96 12.45C 404.74 16.14 403.12 21.23 403.12 27.57C 403.12 33.91 404.76 38.8 407.99 42.51C 411.28 46.39 415.44998 48.339996 421.15 48.329998C 427 48.329998 431.24 46.42 434.44 42.659996C 437.64 38.899994 439.12 33.969997 439.12 27.569996C 439.12 21.169994 437.5 16.199997 434.32 12.489996zM421.18 39.8C 415.25 39.8 412.74 35.8 412.74 27.579998C 412.74 19.359997 415.25 15.349998 421.18 15.349998C 427.11 15.349998 429.6 19.349998 429.6 27.579998C 429.6 35.809998 427.1 39.8 421.18 39.8zM288.45 65.76L288.45 85.08C 288.45 89.9 286.90002 91.950005 283.27002 91.950005C 279.64 91.950005 278.15002 89.950005 278.15002 85.08L278.15002 85.08L278.15002 65.76L269.94003 65.76L269.94003 86.07C 269.94003 90.46 271.16003 93.85 273.55002 96.17C 275.94 98.49 279.2 99.68 283.27002 99.68C 287.34003 99.68 290.68002 98.52 293.00003 96.23C 295.32004 93.94001 296.71002 90.44 296.71002 86.01L296.71002 86.01L296.71002 65.76zM255.95 70.12C 253.28 67.01 249.8 65.44 244.95 65.44C 240.09999 65.44 236.59999 67 233.95 70.08C 231.3 73.16 229.95 77.4 229.95 82.68C 229.95 87.96 231.31 92.05 234 95.14C 236.69897 98.397835 240.77437 100.19471 245 99.99C 249.89 99.99 253.41 98.4 256.08 95.259995C 258.74997 92.11999 259.97998 88.009995 259.97998 82.689995C 259.97998 77.369995 258.62997 73.20999 255.97998 70.119995zM244.95 92.880005C 240.01 92.880005 237.95 89.55 237.95 82.69C 237.95 75.83 240.04 72.5 244.95 72.5C 249.86 72.5 251.95 75.83 251.95 82.69C 251.95 89.55 249.86 92.880005 244.95 92.880005zM516.99 23.53L511.53 21.53C 508.53 20.53 507.53 19.44 507.53 17.76C 507.53 15.67 508.77 13.59 512.78 13.59C 516.02 13.59 518.53 15.4800005 520.35004 18.59L520.35004 18.59L527.01 13.82C 524.67 8.379999 519.77 5.7199993 512.41003 5.7199993C 503.28003 5.7199993 498.41003 11.719999 498.41003 18.259998C 498.41003 23.46 501.58005 27.059998 507.79004 29.309998L507.79004 29.309998L513.30005 31.439999C 517.05005 32.85 518.41003 34.21 518.41003 36.44C 518.41003 38.949997 516.72003 40.51 512.71 40.51C 509.02347 40.349533 505.7199 38.18553 504.10004 34.87L504.10004 34.87L497.28003 39.68C 499.85004 45.35 504.89 48.68 512.55005 48.68C 521.30005 48.68 527.97003 44.21 527.97003 35.79C 527.97003 29.52 523.12006 25.57 516.99005 23.53zM218.39 94.56C 218.23837 91.38504 217.14917 88.32624 215.26 85.77C 215.81313 85.33731 216.31624 84.84426 216.76 84.299995C 218.54594 82.06023 219.48752 79.263824 219.42 76.399994C 219.5202 73.61886 218.56255 70.90311 216.74 68.799995C 214.98381 66.835075 212.45465 65.73862 209.82 65.799995L209.82 65.799995L193.82 65.799995L193.82 99.67999L200.90001 99.67999L200.90001 87.57L205.69 87.57C 207.25581 87.64739 208.7128 88.394104 209.69 89.62C 210.88376 91.340225 211.5192 93.38616 211.51001 95.48L211.51001 95.48L211.51001 95.950005C 211.52878 97.20297 211.66267 98.451546 211.91 99.68001L211.91 99.68001L219.12001 99.68001C 218.61678 98.62622 218.3733 97.46721 218.41 96.30001zM200.91 72.369995L207.99 72.369995C 209.13368 72.3387 210.24733 72.73847 211.11 73.49C 211.94075 74.30236 212.38779 75.429054 212.34 76.59C 212.40013 77.76467 211.96255 78.910324 211.13467 79.745834C 210.30678 80.58134 209.16518 81.02937 207.98999 80.979996L207.98999 80.979996L200.90999 80.979996zM168.9 81.01L168.9 87.01L175.32999 87.01C 175.22998 90.880005 173.00998 92.96 168.97998 92.850006C 164.04999 92.700005 161.97998 89.520004 161.97998 82.66C 161.97998 75.8 164.11998 72.47 169.05998 72.47C 171.86998 72.47 174.00998 73.54 174.60999 75.75L174.60999 75.75L182.60999 75.75C 182.24492 73.66722 181.34174 71.71606 179.98999 70.09C 177.31 66.979996 173.82999 65.409996 168.98999 65.409996C 164.15 65.409996 160.65 66.96999 157.98999 70.049995C 155.32999 73.13 153.98999 77.369995 153.98999 82.649994C 153.98999 87.92999 155.34 92.02 157.98999 95.10999C 160.68701 98.37041 164.76376 100.167885 168.98999 99.95999C 173.87999 99.95999 177.09 98.649994 179.74998 95.509995C 182.40997 92.369995 183.43999 87.979996 183.43999 82.659996L183.43999 82.659996L183.43999 80.96999z" stroke="none" fill="#231815" fill-rule="nonzero" />
		</g>
        <path d="M20.83 3.68C 20.835194 3.5165148 20.966513 3.3851945 21.13 3.38L21.13 3.38L52.66 3.38C 52.73737 3.3804028 52.81197 3.4088233 52.87 3.46C 52.924046 3.5210288 52.955776 3.5985923 52.96 3.68L52.96 3.68L52.96 24.18C 52.959995 24.345686 52.82568 24.48 52.66 24.48L52.66 24.48L21.12 24.48C 20.954315 24.48 20.820002 24.345686 20.820002 24.18L20.820002 24.18L20.83 3.68z" stroke="none" fill="#ADDEF8" fill-rule="nonzero" />
        <path d="M20.83 27.24C 20.83 27.074316 20.964315 26.94 21.13 26.94L21.13 26.94L30.53 26.94C 30.695684 26.94 30.83 27.074316 30.83 27.24L30.83 27.24L30.83 60.989998C 30.83 61.155685 30.695684 61.29 30.53 61.29L30.53 61.29L21.13 61.29C 20.964315 61.29 20.83 61.155685 20.83 60.989998L20.83 60.989998L20.83 27.24z" stroke="none" fill="#FFE037" fill-rule="nonzero" />
        <path d="M103.19 61C 103.19 61.079567 103.158394 61.155872 103.10213 61.21213C 103.04587 61.268394 102.96956 61.3 102.89 61.3L102.89 61.3L55.37 61.3C 55.20432 61.3 55.070004 61.165684 55.07 61L55.07 61L55.07 3.68C 55.067177 3.599603 55.097878 3.5216453 55.15476 3.4647608C 55.211643 3.4078763 55.2896 3.3771768 55.37 3.38L55.37 3.38L102.89 3.38C 103.05348 3.3851926 103.18481 3.5165133 103.19 3.68L103.19 3.68L103.19 61z" stroke="none" fill="#D7000F" fill-rule="nonzero" />
        <path d="M105.3 3.6299999C 105.3 3.4643145 105.43432 3.33 105.600006 3.33L105.600006 3.33L120.57 3.33C 120.73569 3.33 120.87 3.4643145 120.87 3.6299999L120.87 3.6299999L120.87 60.989998C 120.87 61.155685 120.73569 61.29 120.57 61.29L120.57 61.29L105.600006 61.29C 105.43432 61.29 105.3 61.155685 105.3 60.989998L105.3 60.989998L105.3 3.6299999z" stroke="none" fill="#ADDEF8" fill-rule="nonzero" />
        <path d="M36.34 103.12C 36.334812 103.283485 36.20349 103.41481 36.04 103.420006L36.04 103.420006L21.12 103.420006C 21.040636 103.420006 20.964739 103.38748 20.910002 103.33001C 20.855953 103.27296 20.82404 103.198494 20.820002 103.12001L20.820002 103.12001L20.820002 80.12001C 20.82 80.04045 20.851606 79.96414 20.907867 79.90788C 20.964128 79.851616 21.040434 79.82001 21.12 79.82001L21.12 79.82001L36.07 79.82001C 36.149567 79.82001 36.225872 79.851616 36.28213 79.90788C 36.338394 79.96414 36.37 80.04045 36.37 80.12001L36.37 80.12001L36.34 103.12z" stroke="none" fill="#D7000F" fill-rule="nonzero" />
        <path d="M105.6 63.6L119.759995 63.6L105.299995 101.53999L105.299995 63.9C 105.299995 63.820435 105.331604 63.74413 105.38787 63.68787C 105.44413 63.631607 105.52044 63.600002 105.6 63.600002L105.6 63.600002L120.58 103.4L106.41 103.4L120.87 65.4L120.87 103.06C 120.8701 103.221855 120.741776 103.35461 120.58 103.36" stroke="none" fill="#FFE037" fill-rule="nonzero" />
        <path d="M103.19 103.11C 103.19005 103.18868 103.15813 103.264 103.101555 103.31868C 103.04499 103.37337 102.96863 103.40272 102.89 103.4L102.89 103.4L38.58 103.4C 38.5011 103.397835 38.42599 103.36565 38.370003 103.310005C 38.31348 103.25461 38.28113 103.17913 38.280003 103.100006L38.280003 103.100006L38.280003 77.73L21.12 77.73C 21.040434 77.73 20.964128 77.698395 20.907867 77.64213C 20.851606 77.58587 20.82 77.50956 20.820002 77.43L20.820002 77.43L20.820002 63.88C 20.820002 63.71432 20.954315 63.580006 21.12 63.58L21.12 63.58L102.93 63.58C 103.00956 63.580006 103.08587 63.61161 103.14213 63.667873C 103.198395 63.724133 103.23 63.800438 103.23 63.88L103.23 63.88L103.19 103.11zM33.11 26.44L52.96 26.44L52.96 34.190002L33.11 34.190002zM33.11 35.7L52.96 35.7L52.96 43.49L33.11 43.49zM33.11 44.99L52.96 44.99L52.96 52.93L33.11 52.93zM33.11 54.43L52.96 54.43L52.96 61.86L33.11 61.86z" stroke="none" fill="#FFFFFF" fill-rule="nonzero" />
	</g>
</g>
</svg>